<svg width="123.701" height="72.101" viewBox="0 0 123.701 72.101"
    xmlns="http://www.w3.org/2000/svg">
    <g id="svgGroup" stroke-linecap="round" fill-rule="evenodd" font-size="9pt" stroke="#000" stroke-width="0.25mm" fill="none" style="stroke:#000;stroke-width:0.25mm;fill:none">
        <circle cx="50" cy="50" r="50" />
        <path d="M 117.6 1.101 L 118.7 1.101 L 119.4 21.301 L 117.8 21.301 A 80.493 80.493 0 0 0 113.826 14.801 Q 111.699 11.687 109.491 9.2 A 42.971 42.971 0 0 0 107.75 7.351 A 20.545 20.545 0 0 0 103.86 4.255 A 14.316 14.316 0 0 0 96.35 2.101 A 21.346 21.346 0 0 0 92.61 2.408 Q 90.572 2.771 88.948 3.564 A 10.509 10.509 0 0 0 86.8 4.951 A 9.254 9.254 0 0 0 83.43 11.677 A 12.564 12.564 0 0 0 83.4 12.551 Q 83.4 16.943 86.862 19.454 A 10.819 10.819 0 0 0 87.45 19.851 Q 91.223 22.226 96.601 23.777 A 51.983 51.983 0 0 0 97.4 24.001 A 623.228 623.228 0 0 1 99.787 24.653 Q 103.705 25.732 105.15 26.201 A 60.533 60.533 0 0 1 106.131 26.529 Q 107.688 27.063 109.75 27.851 A 32.285 32.285 0 0 1 111.672 28.652 Q 112.6 29.077 113.375 29.517 A 15.782 15.782 0 0 1 114.25 30.051 Q 115.944 31.164 117.826 32.84 A 43.409 43.409 0 0 1 117.95 32.951 A 14.517 14.517 0 0 1 120.138 35.391 A 12.603 12.603 0 0 1 121 36.801 A 20.633 20.633 0 0 1 123.312 43.458 A 27.831 27.831 0 0 1 123.7 48.201 Q 123.7 59.001 116.95 65.551 A 22.812 22.812 0 0 1 104.473 71.685 A 32.146 32.146 0 0 1 99.2 72.101 A 52.294 52.294 0 0 1 93.897 71.814 Q 91.187 71.537 88.185 70.993 A 93.528 93.528 0 0 1 86.15 70.601 A 591.357 591.357 0 0 0 84.415 70.249 Q 78.7 69.101 78 69.101 A 1.568 1.568 0 0 0 77.049 69.455 Q 76.162 70.125 75.317 72.061 A 16.479 16.479 0 0 0 75.3 72.101 L 73.9 72.101 L 72.9 48.301 L 74.6 48.301 Q 79 57.001 85.85 63.501 A 27.53 27.53 0 0 0 90.87 67.333 A 18.438 18.438 0 0 0 100.3 70.001 A 15.7 15.7 0 0 0 106.034 68.972 A 14.65 14.65 0 0 0 109.15 67.301 A 8.781 8.781 0 0 0 112.863 61.107 A 13.441 13.441 0 0 0 113 59.151 A 11.382 11.382 0 0 0 112.44 55.492 A 9.234 9.234 0 0 0 108.85 50.801 A 25.373 25.373 0 0 0 105.415 48.813 Q 103.575 47.918 101.329 47.11 A 62.947 62.947 0 0 0 97.05 45.751 Q 91.008 44.053 87.586 42.698 A 31.311 31.311 0 0 1 85.95 42.001 A 29.306 29.306 0 0 1 79.789 38.122 A 32.753 32.753 0 0 1 79.4 37.801 A 16.31 16.31 0 0 1 74.314 29.916 Q 73.478 27.219 73.27 23.947 A 35.281 35.281 0 0 1 73.2 21.701 A 20.945 20.945 0 0 1 79.451 6.501 A 25.851 25.851 0 0 1 79.55 6.401 A 21.055 21.055 0 0 1 90.33 0.657 A 31.159 31.159 0 0 1 96.9 0.001 A 40.154 40.154 0 0 1 104.4 0.733 A 48.212 48.212 0 0 1 107.95 1.551 A 155.101 155.101 0 0 0 109.953 2.077 Q 113.93 3.092 115.081 3.101 A 2.612 2.612 0 0 0 115.1 3.101 A 2.063 2.063 0 0 0 116.366 2.646 Q 117.004 2.163 117.565 1.164 A 8.354 8.354 0 0 0 117.6 1.101 Z M 35.5 69.201 L 42.6 69.201 L 35.3 47.601 L 15.5 47.601 L 7.8 69.201 L 15.3 69.201 L 15.3 71.101 L 0 71.101 L 0 69.201 L 4.7 69.201 L 30.2 0.501 L 38.4 0.501 L 63.6 69.201 L 68.2 69.201 L 68.2 71.101 L 35.5 71.101 L 35.5 69.201 Z M 34.5 45.401 L 25.8 19.201 L 16.4 45.401 L 34.5 45.401 Z" vector-effect="non-scaling-stroke"/>
    </g>
</svg>